{"title":"SNL-The First Five Years(dvdripmp4)","uid":7693264,"size":1916483222,"categoryP":"video","categoryS":"tv_shows","magnet":"?xt=urn:btih:4d1b6e401acd30916c0ae3f1a9203f025cc03498&amp;dn=SNL-The+First+Five+Years%28dvdripmp4%29&amp;tr=udp%3A%2F%2Ftracker.openbittorrent.com%3A80&amp;tr=udp%3A%2F%2Fopen.demonii.com%3A1337&amp;tr=udp%3A%2F%2Ftracker.coppersurfer.tk%3A6969&amp;tr=udp%3A%2F%2Fexodus.desync.com%3A6969","seeders":0,"leechers":2,"uploader":"russell887","files":1,"time":1349288337,"description":"Live from New York, it's Saturday Night! \n\nA retrospective of the first 5 years of Saturday Night Live...the seasons that literally changed the face of comedy. Originally made for broadcast by NBC, this exclusive documentary features explosive comedy, plus an anthology showing the funniest moments of SNL. It includes many great interviews with the cast and writers (including Chevy Chase, Dan Akroyd, Laraine Newman, Garrett Morris and others), mixed with lots of quick flashes of classic sketches and musical guests. A must-see special for fans of classic Saturday Night Live.\n\nINFO: \nFormat : MPEG-4\nFormat profile : Base Media / Version 2\nCodec ID : mp42\nFile size : 1.78 GiB\nDuration : 2h 33mn\nOverall bit rate : 1 661 Kbps\nMovie name : SNL-The First Five Years\nEncoded date : UTC 2012-10-02 21:29:54\nTagged date : UTC 2012-10-03 00:07:35\n\nVideo\nID : 2\nFormat : MPEG-4 Visual\nFormat profile : Advanced Simple@L5\nFormat settings, BVOP : Yes\nFormat settings, QPel : No\nFormat settings, GMC : No warppoints\nFormat settings, Matrix : Default (H.263)\nCodec ID : 20\nDuration : 2h 33mn\nBit rate mode : Variable\nBit rate : 1 522 Kbps\nMaximum bit rate : 5 298 Kbps\nWidth : 720 pixels\nHeight : 576 pixels\nDisplay aspect ratio : 4:3\nFrame rate mode : Constant\nFrame rate : 25.000 fps\nStandard : PAL\nColor space : YUV\nChroma subsampling : 4:2:0\nBit depth : 8 bits\nScan type : Progressive\nCompression mode : Lossy\nBits/(Pixel*Frame) : 0.147\nStream size : 1.63 GiB (92%)\nLanguage : English\nEncoded date : UTC 2012-10-02 21:29:54\nTagged date : UTC 2012-10-03 00:07:35\n\nAudio\nID : 3\nFormat : MPEG Audio\nFormat version : Version 1\nFormat profile : Layer 3\nMode : Joint stereo\nMode extension : MS Stereo\nCodec ID : 6B\nDuration : 2h 33mn\nBit rate mode : Constant\nBit rate : 128 Kbps\nMaximum bit rate : 134 Kbps\nChannel(s) : 2 channels\nSampling rate : 44.1 KHz\nCompression mode : Lossy\nStream size : 141 MiB (8%)\nLanguage : English \n\nSize: 1.78GB","torrent":{"xt":"urn:btih:4d1b6e401acd30916c0ae3f1a9203f025cc03498","amp;dn":"SNL-The+First+Five+Years%28dvdripmp4%29","amp;tr":["udp%3A%2F%2Ftracker.openbittorrent.com%3A80","udp%3A%2F%2Fopen.demonii.com%3A1337","udp%3A%2F%2Ftracker.coppersurfer.tk%3A6969","udp%3A%2F%2Fexodus.desync.com%3A6969"],"infoHash":"4d1b6e401acd30916c0ae3f1a9203f025cc03498","infoHashBuffer":{"type":"Buffer","data":[77,27,110,64,26,205,48,145,108,10,227,241,169,32,63,2,92,192,52,152]},"announce":[],"urlList":[]}}